<?xml version="1.0" standalone="no"?><!DOCTYPE svg PUBLIC "-//W3C//DTD SVG 1.1//EN" "http://www.w3.org/Graphics/SVG/1.1/DTD/svg11.dtd"><svg t="1520475521226" class="icon" style="" viewBox="0 0 1024 1024" version="1.1" xmlns="http://www.w3.org/2000/svg" p-id="1865" xmlns:xlink="http://www.w3.org/1999/xlink" width="128" height="128"><defs><style type="text/css"></style></defs><path d="M518.542222 284.444444a145.066667 145.066667 0 0 0-108.373333 40.106667A144.213333 144.213333 0 0 0 369.777778 431.786667h66.275555a105.813333 105.813333 0 0 1 16.782223-64.568889A70.257778 70.257778 0 0 1 514.844444 341.333333a71.111111 71.111111 0 0 1 52.622223 18.773334 72.248889 72.248889 0 0 1 18.204444 51.2 73.955556 73.955556 0 0 1-16.782222 45.511111l-10.524445 11.946666a343.324444 343.324444 0 0 0-71.395555 77.653334 132.266667 132.266667 0 0 0-11.946667 59.448889v10.524444H540.444444v-10.524444a85.333333 85.333333 0 0 1 9.955556-41.813334 108.657778 108.657778 0 0 1 25.6-31.857777A611.84 611.84 0 0 0 630.613333 483.555556a123.164444 123.164444 0 0 0 23.608889-76.8 113.777778 113.777778 0 0 0-36.977778-89.6A142.222222 142.222222 0 0 0 518.542222 284.444444z m-10.524444 366.08a41.813333 41.813333 0 0 0-31.857778 12.515556 40.106667 40.106667 0 0 0-13.653333 31.857778 46.08 46.08 0 0 0 45.511111 44.657778 48.924444 48.924444 0 0 0 32.426666-12.231112 44.088889 44.088889 0 0 0 13.084445-32.426666A40.96 40.96 0 0 0 540.444444 662.755556a44.942222 44.942222 0 0 0-33.28-12.515556z" p-id="1866" fill="#a31022"></path><path d="M512 56.888889A455.111111 455.111111 0 1 1 56.888889 512 455.111111 455.111111 0 0 1 512 56.888889m0-56.888889a512 512 0 1 0 512 512A512 512 0 0 0 512 0z" p-id="1867" fill="#a31022"></path></svg>